<svg viewBox="0 0 352.8 162.5" xmlns="http://www.w3.org/2000/svg">
  <style>.st0{fill:#2F7F7F;stroke:#fff;stroke-width:2}.st1{fill:none;stroke:#EE6921;stroke-width:3}.st2{fill:none;stroke:#2D7E7F;stroke-width:3}.st3{fill:none;stroke:#2F7F7F;stroke-width:3;stroke-linecap:round;stroke-linejoin:round}.st4{fill:#EE6921;stroke:#fff;stroke-width:2}.st6{fill:#F4F4F4}.st7{font-family:Georgia,serif}.st10{fill:#EE6921}.st15{fill:#F4F5F3}</style>
  <g><polyline class="st0" points="57.1,76 57.1,104.5 96.1,104.5 96.1,76"/><polyline class="st0" points="45.1,75 57.9,64 57.9,49 65.4,48.5 65.4,58 76.6,48.5 108.1,76"/><polyline class="st0" points="51.1,79.5 76.6,57 101.1,79.5"/></g>
  <g><path class="st1" d="M103.7,60c5-7.9,15.1-21.4,32.5-32c24.1-14.7,47.8-15.1,57.4-14.7"/><path class="st1" d="M262.7,47.5c-36.8-35-80.8-36-90-36c-50.8,0-81.4,27.8-88.1,34.2"/><path class="st1" d="M156,30.6c12.1-3.3,21.5-2.5,27.7-1.1c28.2,6.1,52.5,35.5,57,74v2"/><path class="st1" d="M104.7,105.5c1-34.5,26.1-68.3,60-78.1c29.3-8.4,60.5,0.9,83,30"/><polyline class="st2" points="43.7,113.5 129.7,113.5 155,82.5"/><polyline class="st2" points="300.7,113.5 215.7,113.5 191.7,82.5"/></g>
  <g><polyline class="st3" points="249.7,77 249.7,105.5 288.7,105.5 288.7,77"/><polyline class="st3" points="244.7,80.5 269.2,58 294.7,80.5"/><polyline class="st3" points="237.7,77 269.2,49.5 280.4,59 280.4,49.5 287.9,50 287.9,65 300.7,76"/></g>
  <path class="st4" d="M61.9,107.5H47.6c-0.6,0-1-0.4-1-1V95.3c0-0.6,0.4-1,1-1h14.4c0.6,0,1,0.4,1,1v11.3C62.9,107.1,62.5,107.5,61.9,107.5z"/>
  <text transform="matrix(1 0 0 1 42.9 143.6)"><tspan class="st6 st7" style="font-size:28px">Cleanout</tspan><tspan x="116.4" y="0.1" class="st10" style="font-family:Times,serif;font-size:34px">2</tspan><tspan x="136.7" class="st15 st7" style="font-size:28px">Closing</tspan><tspan x="228.9" class="st15 st7" style="font-size:14px">.com</tspan></text>
  <path class="st10" d="M283.2,73c-0.7-0.1-1.8,0.4-2.2,0.6c-0.5,0.2-1,0.6-2,1.3c-0.7,0.5-1,0.7-1.4,1c-0.6,0.5-1.1,1-1.4,1.4c-2.9,3.1-2.8,2.9-3.3,3.5c-0.4,0.5-1,1.2-2.1,2.6c-1.1,1.3-1.6,2-2.3,3c-0.6,0.8-1.1,1.5-2.3,3.1c-1.3,1.9-2,2.8-2.2,3.1c-1.2,2-1.3,3-1.9,2.9c-0.5,0-0.6-1-2-2.6c-0.1-0.1-0.6-0.7-1.3-1.3c-0.7-0.6-1.2-1-2.1-1.3c-0.2-0.1-0.8-0.2-1.5-0.3c-0.5,0-1,0.1-1.2,0.1c-0.4,0.1-0.8,0.1-1.2,0.3c-0.4,0.2-0.7,0.4-0.9,0.8c0,0-0.2,0.5,0,1.1c0.2,0.4,0.5,0.6,1,0.9c0.3,0.2,0.7,0.6,1.5,1.3c0.6,0.5,1,1,1.8,2c0.3,0.4,0.9,1.1,1.6,2.1c0.9,1.2,0.8,1.2,1.3,1.8c0.5,0.7,0.7,1.1,1,1.5c0.2,0.2,0.2,0.3,0.4,0.6c0.1,0.1,0.3,0.4,0.7,0.7c0.4,0.3,0.9,0.4,1.1,0.5c0.3,0.1,0.7,0.1,1.2,0c0.2,0,0.6-0.2,1.1-0.5c0.3-0.3,0.5-0.4,1-1.1c0.3-0.5,0.2-0.3,0.6-0.9c0.5-0.8,0.9-1.7,1.1-2c1.9-3.4,3-5.3,4.3-7.5c1-1.6,1.9-3,2.9-4.5c1-1.5,1.7-2.5,1.9-2.8c1.1-1.6,1.8-2.6,2.9-3.9c1.1-1.3,2.3-2.7,2.4-2.8c0.5-0.5,0.8-1.1,1.3-1.5c0.5-0.4,0.9-0.7,1-1.2c0.1-0.4-0.1-0.8-0.3-1.1L283.2,73z"/>
</svg>
